<?xml version="1.0" encoding="utf-8"?><svg xmlns="http://www.w3.org/2000/svg" xmlns:xlink="http://www.w3.org/1999/xlink" width="1488" height="742" preserveAspectRatio="xMidYMid" viewBox="0 0 1488 742" style="z-index:1;margin-right:-1.6px;display:block;background-color:rgb(241, 242, 243);animation-play-state:paused" ><g transform="translate(744,371) scale(1,1) translate(-744,-371)" style="transform:matrix(1, 0, 0, 1, 0, 0);animation-play-state:paused" ><g transform="translate(1155.5127304452594,51.79800645752994) scale(100)" opacity="0.4" style="transform:matrix(100, 0, 0, 100, 1155.51, 51.798);opacity:0.4;animation-play-state:paused" ><path d="M5.051759999999999 0 C5.051759999999999 1.1978399999999998 5.2444881119966364 1.6447601303308474 4.645568111996637 2.6821199999999994 S3.5632398696691516 3.776032493822074 2.52588 4.374952493822074 S1.19784 5.36424 3.2846496729290987e-16 5.36424 S-1.4885201303308462 4.973872493822075 -2.525879999999998 4.374952493822075 S-4.046648111996635 3.7194798696691533 -4.645568111996636 2.6821200000000016 S-5.051759999999999 1.1978400000000005 -5.051759999999999 6.186621714060632e-16 S-5.244488111996637 -1.6447601303308466 -4.645568111996638 -2.6821199999999985 S-3.563239869669153 -3.776032493822073 -2.5258800000000017 -4.374952493822073 S-1.1978400000000007 -5.36424 -9.853949018787296e-16 -5.36424 S1.4885201303308435 -4.973872493822076 2.525879999999996 -4.374952493822077 S4.046648111996634 -3.7194798696691533 4.645568111996635 -2.682120000000002 S5.051759999999999 -1.1978400000000011 5.051759999999999 -1.2373243428121264e-15" fill="#3285db" stroke-width="0" transform="matrix(1,0,0,1,0,0)" style="transform:matrix(1, 0, 0, 1, 0, 0);animation-play-state:paused" ></path></g>
<g transform="translate(1237.8152765343114,-12.042392250964042) scale(100)" opacity="0.4" style="transform:matrix(100, 0, 0, 100, 1237.82, -12.0424);opacity:0.4;animation-play-state:paused" ><path d="M6.062111999999999 0 C6.062111999999999 1.4374079999999998 6.293385734395964 1.9737121563970168 5.5746817343959645 3.218543999999999 S4.275887843602982 4.53123899258649 3.0310560000000004 5.24994299258649 S1.4374080000000002 6.437087999999999 3.9415796075149183e-16 6.437087999999999 S-1.7862241563970158 5.96864699258649 -3.031055999999998 5.24994299258649 S-4.855977734395962 4.463375843602984 -5.574681734395963 3.218544000000002 S-6.062111999999999 1.4374080000000005 -6.062111999999999 7.423946056872758e-16 S-6.293385734395965 -1.9737121563970155 -5.574681734395965 -3.218543999999998 S-4.275887843602984 -4.531238992586488 -3.031056000000002 -5.249942992586488 S-1.437408000000001 -6.437087999999999 -1.1824738822544755e-15 -6.437087999999999 S1.7862241563970127 -5.968646992586492 3.0310559999999955 -5.249942992586493 S4.855977734395961 -4.463375843602984 5.574681734395962 -3.2185440000000023 S6.062111999999999 -1.4374080000000014 6.062111999999999 -1.4847892113745516e-15" fill="#4c91d0" stroke-width="0" transform="matrix(1,0,0,1,0,0)" style="transform:matrix(1, 0, 0, 1, 0, 0);animation-play-state:paused" ></path></g>
<g transform="translate(1435.3413871480361,-165.25934915134962) scale(100)" opacity="0.4" style="transform:matrix(100, 0, 0, 100, 1435.34, -165.259);opacity:0.4;animation-play-state:paused" ><path d="M8.486956799999998 0 C8.486956799999998 2.0123711999999996 8.810740028154349 2.763197018955823 7.80455442815435 4.505961599999998 S5.986242981044175 6.343734589621085 4.2434784 7.349920189621085 S2.0123712 9.011923199999998 5.518211450520885e-16 9.011923199999998 S-2.500713818955822 8.356105789621086 -4.243478399999997 7.349920189621086 S-6.798368828154347 6.2487261810441765 -7.804554428154347 4.505961600000002 S-8.486956799999998 2.0123712000000005 -8.486956799999998 1.039352447962186e-15 S-8.810740028154349 -2.763197018955821 -7.804554428154351 -4.5059615999999965 S-5.986242981044177 -6.343734589621082 -4.2434784000000025 -7.349920189621083 S-2.0123712000000014 -9.011923199999998 -1.6554634351562655e-15 -9.011923199999998 S2.500713818955818 -8.356105789621086 4.243478399999994 -7.349920189621089 S6.798368828154345 -6.248726181044178 7.804554428154346 -4.505961600000004 S8.486956799999998 -2.012371200000002 8.486956799999998 -2.078704895924372e-15" fill="#689cc5" stroke-width="0" transform="matrix(1,0,0,1,0,0)" style="transform:matrix(1, 0, 0, 1, 0, 0);animation-play-state:paused" ></path></g></g></svg>